<svg width="24" height="18" viewBox="0 0 24 18" fill="none" xmlns="http://www.w3.org/2000/svg">
<g id="Group 17">
<path id="Vector" d="M15.7494 9C14.7838 9 13.8556 8.56875 13.1244 7.79062C12.4166 7.03125 11.9806 6.01406 11.9056 4.93125C11.8259 3.77812 12.1775 2.71406 12.8947 1.94063C13.6119 1.17188 14.6244 0.75 15.7494 0.75C16.865 0.75 17.8775 1.17656 18.5947 1.94531C19.3213 2.72344 19.6728 3.78281 19.5884 4.92656C19.5088 6.00938 19.0775 7.02656 18.3697 7.78594C17.6431 8.56875 16.715 9 15.7494 9ZM15.7494 2.25C15.0463 2.25 14.4228 2.50312 13.9963 2.9625C13.5556 3.43594 13.3541 4.07812 13.4056 4.82344C13.4572 5.56406 13.7478 6.25781 14.2259 6.76875C14.6666 7.24219 15.2103 7.5 15.7494 7.5C16.2931 7.5 16.8322 7.2375 17.2728 6.76875C17.7509 6.25781 18.0416 5.56875 18.0931 4.82344C18.1447 4.10156 17.9338 3.44063 17.4931 2.97188C17.0666 2.50313 16.4431 2.25 15.7494 2.25Z" fill="current"/>
<path id="Vector_2" d="M21.929 17.2498H9.57276C9.16495 17.2498 8.78995 17.067 8.54151 16.7482C8.2837 16.4154 8.18995 15.9654 8.29308 15.5389C8.68683 13.9545 9.66651 12.642 11.1196 11.7373C12.4087 10.9357 14.054 10.4951 15.7462 10.4951C17.4712 10.4951 19.0743 10.917 20.3728 11.7186C21.8306 12.6139 22.8103 13.9357 23.204 15.5389C23.3071 15.9654 23.2134 16.4154 22.9556 16.7482C22.7118 17.067 22.3368 17.2498 21.929 17.2498ZM9.79308 15.7498H21.7134C20.94 12.9842 18.0384 11.9998 15.7509 11.9998C13.4728 11.9998 10.5759 12.9842 9.79308 15.7498Z" fill="current"/>
<path id="Vector_3" d="M6.89093 9.1877C5.24093 9.1877 3.79249 7.65488 3.65655 5.77051C3.58624 4.80488 3.88624 3.91426 4.49561 3.25801C5.1003 2.61113 5.94874 2.25488 6.88624 2.25488C7.81905 2.25488 8.66749 2.61582 9.27218 3.26738C9.88624 3.92832 10.1862 4.81895 10.1159 5.7752C9.98936 7.65488 8.53624 9.1877 6.89093 9.1877ZM6.89093 3.7502C6.3753 3.7502 5.91593 3.9377 5.59718 4.27988C5.26905 4.63145 5.11436 5.10957 5.15655 5.6627C5.23624 6.75957 6.02843 7.6877 6.89093 7.6877C7.75343 7.6877 8.5503 6.75957 8.6253 5.6627C8.6628 5.12363 8.50343 4.63613 8.17999 4.28457C7.86124 3.9377 7.40186 3.7502 6.89093 3.7502Z" fill="current"/>
<path id="Vector_4" d="M7.21879 15.7502H1.95472C1.58441 15.7502 1.24222 15.5814 1.01254 15.2955C0.778161 14.9955 0.693786 14.583 0.787536 14.1986C1.11097 12.8908 1.91722 11.8127 3.11254 11.0721C4.16722 10.4205 5.50785 10.0596 6.88597 10.0596C8.06722 10.0596 9.07504 10.2564 9.96566 10.6643C10.3407 10.8377 10.5094 11.283 10.336 11.658C10.1625 12.033 9.71722 12.2018 9.34222 12.0283C8.65316 11.7143 7.8516 11.5596 6.89066 11.5596C5.17972 11.5596 3.01879 12.2721 2.33441 14.2549H7.21879C7.63129 14.2549 7.96879 14.5924 7.96879 15.0049C7.96879 15.4174 7.63129 15.7502 7.21879 15.7502Z" fill="current"/>
</g>
</svg>
