<svg width="25" height="24" viewBox="0 0 25 24" fill="none" xmlns="http://www.w3.org/2000/svg">
<mask id="mask0_1_13668" style="mask-type:alpha" maskUnits="userSpaceOnUse" x="0" y="0" width="25" height="24">
<rect x="0.5" width="24" height="24" fill="#D9D9D9"/>
</mask>
<g mask="url(#mask0_1_13668)">
<path fill-rule="evenodd" clip-rule="evenodd" d="M12.4965 6.54639C11.9488 6.54639 11.5048 6.9904 11.5048 7.53812V11.007H8.03666C7.48894 11.007 7.04492 11.451 7.04492 11.9987C7.04492 12.5464 7.48894 12.9904 8.03666 12.9904H11.5048V16.4637C11.5048 17.0115 11.9488 17.4555 12.4965 17.4555C13.0443 17.4555 13.4883 17.0115 13.4883 16.4637V12.9904H16.9623C17.51 12.9904 17.954 12.5464 17.954 11.9987C17.954 11.451 17.51 11.007 16.9623 11.007H13.4883V7.53812C13.4883 6.9904 13.0443 6.54639 12.4965 6.54639Z" fill="white"/>
</g>
</svg>
